<?xml version="1.0" encoding="UTF-8"?>
<svg xmlns="http://www.w3.org/2000/svg" xmlns:xlink="http://www.w3.org/1999/xlink" version="1.1" viewBox="0 0 977 288">
  <defs>
    <style>
      .cls-1 {
        fill: none;
      }

      .cls-2 {
        fill: #3393be;
      }

      .cls-3 {
        fill: #1986b6;
      }

      .cls-4 {
        fill: #8cc2da;
      }

      .cls-5 {
        fill: #c0c2c4;
      }

      .cls-6 {
        fill: #99c9df;
      }

      .cls-7 {
        fill: #bfddeb;
      }

      .cls-8 {
        fill: #005288;
      }

      .cls-9 {
        fill: #fff;
      }

      .cls-10 {
        fill: #c41230;
      }

      .cls-11 {
        fill: #002b47;
      }

      .cls-12 {
        fill: #fc3;
      }

      .cls-13 {
        fill: #66aece;
      }

      .cls-14 {
        fill: #80bcd6;
      }

      .cls-15 {
        fill: #c41230;
      }

      .cls-16 {
        fill: #0078ae;
      }

      .cls-17 {
        fill: #4ca1c6;
      }

      .cls-18 {
        fill: #73b5d2;
      }

      .cls-19 {
        fill: #0d7fb2;
      }

      .cls-20 {
        clip-path: url(#clippath);
      }

      .cls-21 {
        fill: #d9ebf3;
      }

      .cls-22 {
        fill: #b2d7e7;
      }
    </style>
    <clipPath id="clippath">
      <circle class="cls-1" cx="144.32" cy="144" r="83.95"/>
    </clipPath>
  </defs>
  <!-- Generator: Adobe Illustrator 28.6.0, SVG Export Plug-In . SVG Version: 1.2.0 Build 709)  -->
  <g>
    <g id="Layer_1">
      <g>
        <g>
          <circle class="cls-9" cx="144.42" cy="144" r="143"/>
          <g>
            <circle class="cls-11" cx="144.42" cy="144" r="95.19"/>
            <path class="cls-9" d="M144.42,242.61c-13.37,0-26.34-2.62-38.55-7.78-11.79-4.99-22.38-12.13-31.48-21.22-9.09-9.09-16.24-19.69-21.22-31.48-5.16-12.21-7.78-25.18-7.78-38.55s2.62-26.34,7.78-38.55c4.99-11.79,12.13-22.38,21.22-31.48,9.09-9.09,19.69-16.24,31.48-21.22,12.21-5.16,25.18-7.78,38.55-7.78s26.34,2.62,38.55,7.78c11.79,4.99,22.38,12.13,31.48,21.22,9.09,9.09,16.24,19.69,21.22,31.48,5.16,12.21,7.78,25.18,7.78,38.55s-2.62,26.34-7.78,38.55c-4.99,11.79-12.13,22.38-21.22,31.48-9.09,9.09-19.69,16.24-31.48,21.22-12.21,5.16-25.18,7.78-38.55,7.78ZM144.42,49.22c-52.03,0-94.36,42.33-94.36,94.36s42.33,94.36,94.36,94.36,94.36-42.33,94.36-94.36-42.33-94.36-94.36-94.36Z"/>
            <path class="cls-5" d="M144.42,7c36.59,0,71,14.25,96.87,40.13,25.88,25.88,40.13,60.28,40.13,96.87s-14.25,71-40.13,96.87-60.28,40.13-96.87,40.13-71-14.25-96.87-40.13S7.42,180.59,7.42,144s14.25-71,40.13-96.87C73.42,21.25,107.83,7,144.42,7M144.42,0C64.89,0,.42,64.47.42,144s64.47,144,144,144,144-64.47,144-144S223.95,0,144.42,0h0Z"/>
            <g>
              <g>
                <path class="cls-8" d="M19.08,163.62l.35,1.63,6.61-1.42c3.31-.71,5.3.93,5.89,3.7.66,3.1-.24,5.67-3.73,6.42l-6.61,1.42.35,1.64-1.05.23-1.31-6.12,1.05-.23.38,1.76,6.61-1.42c2.33-.5,3.31-1.96,2.89-3.94-.4-1.87-1.92-2.74-4.21-2.25l-6.61,1.42.38,1.79-1.05.23-.99-4.64,1.05-.23Z"/>
                <path class="cls-8" d="M28.76,158.24c.82-.11,1.6.43,1.72,1.27s-.48,1.63-1.31,1.74c-.84.11-1.57-.49-1.69-1.33s.44-1.56,1.28-1.68Z"/>
                <path class="cls-8" d="M17.45,150.23l-.66.05-.07-1.06,3.11-.22.07.98c-1.33.24-2.03,1.03-1.95,2.24.08,1.07.77,1.73,1.71,1.66.91-.06,1.43-.65,2.31-2.49,1.13-2.33,2.2-3.26,3.89-3.38,2.19-.15,3.65,1.26,3.82,3.65.09,1.28-.2,2.34-.84,3.15l.87-.06.07,1.06-3.54.25-.07-1c1.56-.24,2.49-1.27,2.39-2.65-.08-1.15-.79-1.84-1.79-1.77-.89.06-1.45.63-2.28,2.28-1.3,2.54-2.26,3.4-3.88,3.51-2.11.15-3.61-1.28-3.78-3.62-.08-1.07.13-1.9.63-2.58Z"/>
                <path class="cls-8" d="M27.87,143.01c.83-.01,1.54.62,1.55,1.47.01.85-.67,1.56-1.51,1.57-.85.01-1.5-.68-1.52-1.53-.01-.85.62-1.5,1.47-1.52Z"/>
                <path class="cls-8" d="M18.95,124.84l-.94-.11.13-1.11,3.49.4-.12,1.05c-1.78.29-2.7,1.29-2.87,2.81-.28,2.48,1.85,4.34,4.81,4.67,3.25.37,5.31-1.19,5.61-3.81.17-1.48-.18-2.78-1.12-4.18l1.26.14c.93,1.4,1.38,3.1,1.16,5.04-.45,3.96-3.41,6.21-7.18,5.79-3.87-.44-6.25-3.41-5.82-7.26.16-1.39.69-2.6,1.59-3.43Z"/>
                <path class="cls-8" d="M21.04,114.89l-.35,1.7,10.2,2.11.35-1.7,1.05.22-1.27,6.14-1.05-.22.35-1.7-10.2-2.11-.35,1.7-1.05-.22,1.27-6.14,1.05.22Z"/>
                <path class="cls-8" d="M26.68,102.51l-.31,1.05-1.83-.55-.92,3.06,9.84,2.95.53-1.76,1.03.31-1.85,6.17-1.03-.31.53-1.76-9.84-2.95-.91,3.04,1.83.55-.32,1.07-3.73-1.12.32-1.07.74.22,2.63-8.76-.74-.22.31-1.05,3.73,1.12Z"/>
                <path class="cls-8" d="M27.92,93.97l-.64,1.62,9.68,3.85.64-1.62,1,.4-2.32,5.83-1-.4.64-1.62-9.68-3.85-.64,1.62-1-.4,2.32-5.83,1,.4Z"/>
                <path class="cls-8" d="M33.6,82.15l5.96,11.14,2.79-5.54-1.77-.89.5-1,2.85,1.44-4.73,9.38-.91-.46-5.96-11.14-2.63,5.22,1.72.87-.5,1-2.8-1.41,4.57-9.06.91.46Z"/>
                <path class="cls-8" d="M41.53,72.48l-.61.96-1.19-.76-2.02,3.15,3.66,2.34,1.56-2.44-.99-.63.6-.94,3.12,2-.6.94-1.1-.7-1.56,2.44,3.89,2.49,2.11-3.3-1.26-.8.6-.94,2.26,1.45-5.17,8.07-.92-.59.95-1.48-8.74-5.59-.95,1.48-.92-.59,5.08-7.94,2.2,1.41Z"/>
                <path class="cls-8" d="M49.94,57.61l.84.68-1.05,1.29,8.91,7.26-.94,1.16-11.71.16,6.13,4.99,1.13-1.39.84.68-3.04,3.74-.84-.68,1.09-1.33-8.08-6.58-1.15,1.41-.84-.68,2.49-3.06,10.65-.2-5.47-4.45-1.16,1.42-.84-.68,3.03-3.72Z"/>
                <path class="cls-8" d="M57.04,51.59l-.46-.47.75-.74,2.19,2.22-.7.69c-1.05-.85-2.11-.87-2.97-.02-.77.76-.81,1.71-.15,2.38.64.65,1.43.66,3.39.13,2.5-.66,3.91-.45,5.1.76,1.54,1.56,1.42,3.59-.29,5.28-.91.9-1.91,1.38-2.94,1.41l.61.62-.75.74-2.5-2.53.71-.7c1.2,1.02,2.59,1.06,3.57.09.82-.81.88-1.8.18-2.51-.62-.63-1.43-.69-3.22-.25-2.77.66-4.05.49-5.19-.66-1.49-1.51-1.38-3.58.29-5.22.77-.76,1.53-1.14,2.37-1.2Z"/>
                <path class="cls-8" d="M72.21,39.55l-1.38,1.09,6.43,8.19,1.38-1.09.67.85-4.93,3.88-.67-.85,1.37-1.07-2.91-3.7-4.59,3.61,2.91,3.7,1.37-1.07.67.85-4.95,3.89-.67-.85,1.38-1.09-6.43-8.19-1.38,1.09-.67-.85,4.95-3.89.67.85-1.37,1.07,2.78,3.54,4.59-3.61-2.78-3.54-1.37,1.07-.67-.85,4.93-3.88.67.85Z"/>
                <path class="cls-8" d="M80.14,34.7l-1.47.92,5.52,8.83,1.47-.92.57.91-5.32,3.33-.57-.91,1.47-.92-5.52-8.83-1.47.92-.57-.91,5.32-3.33.57.91Z"/>
                <path class="cls-8" d="M89.63,37.3l1.63,3.2,1.85-.94.49.96-5.85,2.97-.49-.96,1.5-.76-4.72-9.28-1.5.76-.49-.96,4.45-2.26c3.52-1.79,5.92-1.12,7.03,1.07,1.22,2.41.05,4.45-2.19,5.58-.57.29-1.08.46-1.72.62ZM86.58,31.31l2.51,4.94c.45-.04.77-.16,1.16-.35,1.2-.61,1.61-1.84.76-3.5-.75-1.48-2.15-2.23-3.97-1.31l-.45.23Z"/>
                <path class="cls-8" d="M115.05,30.2l.31.97c-.23.77-.87,1.49-1.74,1.77-.85.27-1.59.35-3.46-.4-.85,1.42-2.04,2.32-3.51,2.79-2.3.74-4.13.01-4.74-1.9-.51-1.58.21-3,1.55-4.45-1.47-.98-1.99-1.69-2.25-2.5-.53-1.66.41-3.25,2.5-3.92,1.78-.57,3.4-.11,3.82,1.2.41,1.3-.27,2.45-1.61,3.79.57.35,1.27.74,2.15,1.2.71.37,1.33.69,1.87.95.28-1.04.44-2.28.49-3.75l-1.39.44-.32-1.01,3.87-1.24.32,1.01-1.24.4c-.06,1.85-.27,3.38-.64,4.65,1.83.8,2.44.79,3.14.56.25-.08.55-.26.87-.58ZM103.27,24.96c.19.59.53,1.16,1.73,2.01.36-.75.48-1.6.17-2.56-.26-.81-.78-1.12-1.32-.95-.58.18-.82.8-.59,1.5ZM109.04,32.04c-.73-.34-1.58-.78-2.61-1.33-.74-.4-1.39-.75-1.94-1.09-.28.74-.33,1.5-.07,2.32.46,1.44,1.65,1.85,2.91,1.45.67-.21,1.23-.67,1.71-1.36Z"/>
                <path class="cls-8" d="M126.37,18.51l-1.71.29,1.73,10.26,1.71-.29.18,1.06-6.18,1.05-.18-1.06,1.71-.29-1.73-10.26-1.71.29-.18-1.06,6.18-1.05.18,1.06Z"/>
                <path class="cls-8" d="M144.42,17.09l.55,10.4,1.72-.09.06,1.08-6.17.33-.06-1.08,1.7-.09-.42-7.81-3.5,9.21-1.36.07-4.41-8.62.41,7.64,1.68-.09.06,1.08-4.7.25-.06-1.08,1.76-.09-.55-10.4-1.75.09-.06-1.08,4.27-.23,4.72,9.14,3.6-9.58,4.19-.22.06,1.08-1.72.09Z"/>
                <path class="cls-8" d="M164.56,18.69l-1.09,10.36,1.71.18-.11,1.07-6.15-.65.11-1.07,1.69.18.82-7.78-4.91,8.55-1.35-.14-3-9.21-.8,7.61,1.67.18-.11,1.07-4.68-.49.11-1.07,1.75.18,1.09-10.36-1.75-.18.11-1.07,4.25.45,3.23,9.77,5.06-8.89,4.17.44-.11,1.07-1.71-.18Z"/>
                <path class="cls-8" d="M175.34,21.04l-1.7-.38-2.27,10.16,1.7.38-.23,1.05-6.12-1.37.24-1.05,1.7.38,2.27-10.16-1.7-.38.24-1.05,6.12,1.37-.24,1.05Z"/>
                <path class="cls-8" d="M187.76,24.7l.3-.9,1.08.35-1.12,3.41-1.04-.34c.06-1.81-.68-2.95-2.26-3.47-2.75-.9-4.78,1.23-5.6,3.73-1.08,3.29-.11,5.6,2.26,6.37.66.22,1.38.29,1.81.18l1.17-3.56-1.65-.54.33-1.01,5.59,1.83-.33,1.01-1.31-.43-1.37,4.17c-1.48.07-2.94-.07-4.61-.62-4.29-1.41-5.94-4.62-4.74-8.28,1.22-3.7,4.66-5.41,8.36-4.2,1.47.48,2.46,1.23,3.15,2.29Z"/>
                <path class="cls-8" d="M199.7,41.46l-.46.98-3.37-1.58.24-3.54c.14-1.94-.14-2.68-1.25-3.2l-.24-.11-1.95,4.16,1.61.75-.46.97-5.71-2.68.46-.98,1.57.74,4.42-9.43-1.57-.74.46-.97,4.72,2.22c3.18,1.49,4,3.26,3.17,5.04-.62,1.32-2.05,2-4.05,1.61,1.21,1.07,1.49,2.2,1.43,4.03l-.09,2.23,1.08.51ZM198.68,31.98c.51-1.09.41-2.21-1.06-2.9l-.56-.27-1.93,4.12.29.14c1.42.67,2.6.32,3.27-1.1Z"/>
                <path class="cls-8" d="M211.04,48.47l-.57.92-4.74-2.93.57-.92,1.17.73.6-3.05-3.36-2.08-2.4,1.94,1.22.76-.57.92-3.41-2.11.57-.92,1.04.65,9.81-7.73,1.38.86-2.37,12.34,1.04.65ZM208.28,42.08l.89-4.54-3.58,2.88,2.68,1.66Z"/>
                <path class="cls-8" d="M224.63,48.43l-.87-.67,1.16-1.52-2.54-1.94-6.25,8.16,1.46,1.11-.65.86-5.12-3.92.65-.86,1.46,1.11,6.25-8.16-2.52-1.93-1.16,1.52-.89-.68,2.37-3.09.89.68-.47.62,7.26,5.56.47-.62.87.67-2.37,3.09Z"/>
                <path class="cls-8" d="M232.18,52.6l-1.28-1.17-7.02,7.69,1.28,1.17-.73.8-4.63-4.23.73-.8,1.28,1.17,7.02-7.69-1.28-1.17.73-.8,4.63,4.23-.73.8Z"/>
                <path class="cls-8" d="M239.62,68.25c-2.56,2.29-6.54,2.53-9.56-.85-3.04-3.39-2.34-7.29.22-9.58,2.79-2.5,6.67-2.29,9.53.9,2.86,3.2,2.6,7.04-.19,9.53ZM232.28,60.08c-2.51,2.24-2.98,4.95-1.45,6.65,1.53,1.7,4.27,1.53,6.77-.71,2.69-2.41,2.97-5.02,1.48-6.68-1.5-1.68-4.11-1.67-6.8.74Z"/>
                <path class="cls-8" d="M253.76,77.56l-.89.61-.94-1.37-9.46,6.52-.85-1.23,3.12-11.28-6.5,4.48,1.02,1.48-.89.61-2.73-3.97.89-.61.98,1.42,8.57-5.91-1.03-1.49.89-.61,2.24,3.25-2.79,10.27,5.8-4-1.04-1.51.89-.61,2.72,3.95Z"/>
                <path class="cls-8" d="M259.91,90.94l.59-.29.46.95-2.81,1.36-.43-.88c1.14-.72,1.5-1.71.97-2.8-.47-.97-1.35-1.32-2.2-.91-.82.4-1.09,1.14-1.21,3.17-.18,2.58-.82,3.84-2.35,4.58-1.97.96-3.86.19-4.9-1.97-.56-1.16-.69-2.25-.39-3.23l-.78.38-.46-.95,3.2-1.55.44.9c-1.35.8-1.83,2.11-1.23,3.35.5,1.04,1.42,1.41,2.32.97.8-.39,1.11-1.13,1.27-2.97.26-2.84.83-3.99,2.3-4.7,1.9-.92,3.83-.16,4.85,1.95.47.97.59,1.82.37,2.63Z"/>
                <path class="cls-8" d="M263.18,104.34l-.4-1.06,1.33-.5-1.32-3.5-4.07,1.53,1.02,2.71,1.1-.41.39,1.04-3.47,1.31-.39-1.04,1.22-.46-1.02-2.71-4.32,1.63,1.38,3.66,1.4-.53.39,1.04-2.51.95-3.38-8.97,1.03-.39.62,1.64,9.71-3.66-.62-1.64,1.03-.39,3.32,8.82-2.44.92Z"/>
                <path class="cls-8" d="M258.59,121.34l-1.04.27-.93-3.61,2.88-2.07c1.58-1.13,1.97-1.81,1.67-3l-.07-.26-4.45,1.14.44,1.72-1.04.27-1.57-6.11,1.04-.27.43,1.68,10.09-2.59-.43-1.68,1.04-.27,1.3,5.05c.87,3.41.04,5.16-1.87,5.65-1.41.36-2.85-.3-3.82-2.1-.05,1.61-.75,2.55-2.2,3.67l-1.78,1.35.3,1.15ZM265.25,114.52c1.17-.3,1.96-1.09,1.56-2.66l-.16-.6-4.41,1.13.08.31c.39,1.52,1.41,2.21,2.93,1.82Z"/>
                <path class="cls-8" d="M271.67,131.73l-1.07.16-.19-1.29-12.14-2.47-.24-1.64,10.89-6.03-.19-1.29,1.07-.16.83,5.64-1.07.16-.22-1.48-7.66,4.22,8.55,1.78-.23-1.53,1.07-.16.6,4.09Z"/>
                <path class="cls-8" d="M270.98,139.7l-.1-1.74-10.4.61.1,1.74-1.08.06-.37-6.26,1.08-.06.1,1.74,10.4-.61-.1-1.74,1.08-.06.37,6.26-1.08.06Z"/>
                <path class="cls-8" d="M270.93,152.37l.94.03-.03,1.11-3.51-.1.03-1.06c1.75-.44,2.58-1.51,2.62-3.04.07-2.49-2.2-4.17-5.19-4.26-3.27-.1-5.19,1.62-5.27,4.27-.04,1.49.41,2.75,1.47,4.07l-1.27-.04c-1.04-1.32-1.63-2.98-1.57-4.92.12-3.98,2.88-6.47,6.67-6.36,3.89.12,6.51,2.88,6.4,6.75-.04,1.4-.48,2.65-1.3,3.55Z"/>
                <path class="cls-8" d="M267.7,165.51l.15-1.12,1.41.19.5-3.71-4.31-.58-.39,2.87,1.16.16-.15,1.11-3.67-.49.15-1.11,1.29.17.39-2.87-4.57-.62-.52,3.88,1.48.2-.15,1.11-2.66-.36,1.28-9.5,1.09.15-.24,1.74,10.29,1.39.23-1.74,1.09.15-1.26,9.35-2.59-.35Z"/>
                <path class="cls-8" d="M267.54,175.26l.64.15-.24,1.03-3.04-.7.22-.96c1.34.16,2.24-.39,2.52-1.57.24-1.05-.23-1.88-1.15-2.09-.88-.2-1.56.2-2.94,1.71-1.76,1.9-3.06,2.48-4.71,2.09-2.14-.49-3.12-2.27-2.58-4.61.29-1.25.87-2.18,1.73-2.76l-.85-.2.24-1.03,3.46.8-.23.98c-1.56-.22-2.75.49-3.06,1.83-.26,1.12.22,1.99,1.19,2.22.87.2,1.57-.18,2.85-1.51,1.99-2.04,3.16-2.59,4.74-2.22,2.06.48,3.08,2.28,2.55,4.57-.24,1.05-.68,1.78-1.36,2.28Z"/>
              </g>
              <g>
                <path class="cls-16" d="M48.8,216.36l-.7-.99-4.01,2.83c-2,1.42-3.81.88-5.01-.81-1.34-1.9-1.48-3.88.63-5.37l4.01-2.83-.71-1,.64-.45,2.64,3.73-.64.45-.76-1.07-4.01,2.83c-1.41,1-1.64,2.26-.79,3.47.81,1.14,2.07,1.29,3.46.31l4.01-2.83-.77-1.09.64-.45,2,2.83-.64.45Z"/>
                <path class="cls-16" d="M47.87,222.91l-1.99,1.68.98,1.16-.6.5-3.09-3.67.6-.5.79.94,5.77-4.86-.79-.94.6-.5,2.35,2.79c1.86,2.21,1.79,4.02.43,5.17-1.5,1.26-3.14.76-4.32-.65-.3-.36-.51-.69-.73-1.12ZM51.6,219.77l-3.07,2.58c.1.31.24.52.45.76.63.75,1.57.85,2.61-.03.92-.78,1.22-1.89.25-3.04l-.24-.29Z"/>
                <path class="cls-16" d="M63.23,231.94l-.91-.91-5.32,5.36.91.91-.55.55-3.26-3.24.55-.55.9.9,2.4-2.42-3.04-3.01-2.4,2.42.9.9-.55.55-3.27-3.25.55-.55.91.91,5.32-5.36-.91-.91.55-.55,3.27,3.25-.55.55-.9-.9-2.3,2.32,3.04,3.01,2.3-2.32-.9-.9.55-.55,3.26,3.24-.55.55Z"/>
                <path class="cls-16" d="M69.75,242.16c-1.57,1.93-4.41,2.54-6.98.45-2.58-2.1-2.54-4.98-.96-6.92,1.71-2.11,4.53-2.39,6.96-.41s2.69,4.77.98,6.88ZM63.52,237.1c-1.54,1.89-1.56,3.89-.26,4.95,1.3,1.06,3.25.63,4.79-1.26,1.65-2.03,1.55-3.94.28-4.97-1.28-1.04-3.15-.75-4.81,1.28Z"/>
                <path class="cls-16" d="M76.83,242.44l-1.06-.73-4.21,6.15,2.92,2,.93-1.36.67.46-1.42,2.08-6.34-4.35.44-.64,1.06.73,4.26-6.23-1.06-.73.44-.64,3.81,2.61-.44.64Z"/>
                <path class="cls-16" d="M86.91,253.03c-1.36,2.38-3.7,3-6.87,1.2l-3.65-2.08.39-.68,1.12.64,3.74-6.56-1.12-.64.39-.68,3.48,1.98c3.14,1.79,3.87,4.46,2.53,6.82ZM83.38,246.62l-3.67,6.44.64.36c2.22,1.27,3.68.46,4.69-1.3,1.32-2.31.7-4.16-1.25-5.27l-.41-.23Z"/>
                <path class="cls-16" d="M93.93,252.04l-1.15-.55-3.28,6.8,1.15.55-.34.7-4.13-1.99.34-.7,1.15.55,3.28-6.8-1.15-.55.34-.7,4.13,1.99-.34.7Z"/>
                <path class="cls-16" d="M104.97,255.72l-.29.73-1.13-.45-3.07,7.75-1.02-.4-2.72-8.08-2.11,5.33,1.22.48-.29.73-3.28-1.3.29-.73,1.17.46,2.78-7.02-1.23-.49.29-.73,2.69,1.06,2.51,7.33,1.88-4.75-1.25-.49.29-.73,3.27,1.29Z"/>
                <path class="cls-16" d="M112.68,258.72l.19-.66.8.24-.74,2.5-.77-.23c0-1.31-.57-2.13-1.73-2.47-2.03-.6-3.47.99-4.01,2.82-.71,2.4.05,4.06,1.8,4.58.49.15,1.01.19,1.33.09l.77-2.6-1.22-.36.22-.74,4.12,1.22-.22.74-.97-.29-.9,3.05c-1.08.08-2.15,0-3.38-.36-3.17-.94-4.45-3.23-3.66-5.91s3.28-4.02,6.01-3.21c1.09.32,1.83.84,2.35,1.6Z"/>
                <path class="cls-16" d="M126.97,269.44l-.13.77-4.02-.7.13-.77.99.17-.43-2.22-2.85-.49-1.1,1.95,1.04.18-.13.77-2.89-.5.13-.77.89.15,4.53-7.85,1.17.2,1.77,8.94.89.15ZM123.35,265.87l-.64-3.3-1.64,2.9,2.28.39Z"/>
                <path class="cls-16" d="M140.07,262.99l-.57,7.53,1.25.1-.06.78-4.51-.34.06-.78,1.24.09.43-5.66-3.4,6.3-.99-.08-2.4-6.62-.42,5.54,1.23.09-.06.78-3.43-.26.06-.78,1.28.1.57-7.53-1.28-.1.06-.78,3.12.24,2.58,7.02,3.51-6.55,3.06.23-.06.78-1.25-.1Z"/>
                <path class="cls-16" d="M149.74,264h-.83s-.02-1.01-.02-1.01l-2.74.04.05,3.15,2.11-.03v-.85s.8-.01.8-.01l.04,2.69h-.82s-.01-.93-.01-.93l-2.11.04.05,3.34,2.86-.05-.02-1.08h.82s.03,1.93.03,1.93l-7.01.12v-.8s1.27-.02,1.27-.02l-.12-7.52-1.29.02v-.79s6.88-.11,6.88-.11l.03,1.89Z"/>
                <path class="cls-16" d="M161.02,269.54l.07.78-2.71.25-1.15-2.3c-.63-1.26-1.08-1.62-1.97-1.54l-.19.02.3,3.31,1.3-.12.07.78-4.6.42-.07-.78,1.27-.11-.69-7.52-1.27.11-.07-.78,3.8-.34c2.56-.23,3.73.57,3.86,1.99.1,1.05-.55,2-1.97,2.49,1.16.22,1.76.83,2.39,2l.77,1.43.87-.08ZM156.87,263.99c-.08-.87-.56-1.53-1.74-1.42l-.45.04.3,3.29.23-.02c1.14-.1,1.76-.75,1.66-1.88Z"/>
                <path class="cls-16" d="M166,261.06l-1.26.2,1.18,7.46,1.26-.2.12.77-4.53.72-.12-.77,1.26-.2-1.18-7.46-1.26.2-.12-.77,4.53-.72.12.77Z"/>
                <path class="cls-16" d="M174.52,259.14l-.15-.67.8-.18.56,2.49-.76.17c-.63-1.15-1.54-1.54-2.63-1.29-1.78.4-2.55,2.3-2.08,4.42.52,2.31,2.09,3.35,3.98,2.92,1.07-.24,1.88-.79,2.62-1.77l.2.9c-.74.97-1.82,1.69-3.2,2-2.85.64-5.11-.84-5.72-3.53-.62-2.75.86-5.1,3.62-5.72,1-.22,1.97-.15,2.75.26Z"/>
                <path class="cls-16" d="M187.41,263.25l.23.75-3.89,1.22-.23-.75.96-.3-1.39-1.77-2.76.86-.09,2.24,1-.31.23.75-2.8.87-.23-.75.86-.27.45-9.05,1.13-.35,5.66,7.14.86-.27ZM182.56,261.73l-2.07-2.64-.14,3.33,2.2-.69Z"/>
                <path class="cls-16" d="M186.4,254.47c.35.98-.05,2.13-.82,2.96l-.52-.35c.37-.57.46-1.08.36-1.53-.46.08-.86-.15-1.04-.63-.2-.54.08-1.08.59-1.26.57-.21,1.16.04,1.44.8Z"/>
                <path class="cls-16" d="M191.99,252.95l-.18-.44.72-.29.86,2.09-.67.27c-.47-.86-1.18-1.16-2-.83-.73.3-1.03.92-.77,1.56.25.61.78.84,2.26,1.02,1.88.24,2.77.76,3.23,1.9.6,1.47-.05,2.8-1.67,3.47-.87.36-1.67.4-2.38.15l.24.58-.72.29-.98-2.38.68-.28c.52,1.02,1.45,1.42,2.38,1.04.78-.32,1.1-.97.82-1.64-.24-.6-.77-.85-2.1-1.05-2.06-.31-2.88-.78-3.32-1.87-.58-1.42.07-2.78,1.66-3.43.73-.3,1.35-.35,1.94-.16Z"/>
                <path class="cls-16" d="M203.33,253.32l1.23,2.3,1.34-.72.37.69-4.23,2.26-.37-.69,1.09-.58-3.56-6.66-1.09.58-.37-.69,3.22-1.72c2.55-1.36,4.31-.92,5.15.65.92,1.73.1,3.23-1.53,4.1-.41.22-.78.36-1.25.48ZM201.03,249.02l1.89,3.54c.33-.04.56-.13.84-.28.87-.46,1.15-1.36.51-2.56-.57-1.06-1.6-1.58-2.92-.88l-.33.18Z"/>
                <path class="cls-16" d="M217.86,247.6l.42.66-2.29,1.47-2.09-1.51c-1.14-.83-1.71-.94-2.46-.45l-.16.1,1.8,2.8,1.09-.7.42.66-3.89,2.5-.42-.66,1.07-.69-4.08-6.35-1.07.69-.42-.66,3.21-2.06c2.16-1.39,3.57-1.22,4.34-.02.57.89.44,2.03-.59,3.12,1.13-.34,1.94-.08,3.04.67l1.34.91.73-.47ZM211.63,244.59c-.47-.74-1.2-1.1-2.2-.46l-.38.25,1.78,2.78.2-.13c.97-.62,1.22-1.48.6-2.44Z"/>
                <path class="cls-16" d="M224.67,237.64c1.52,1.98,1.47,4.88-1.16,6.9-2.64,2.04-5.43,1.34-6.95-.64-1.66-2.15-1.29-4.96,1.2-6.88,2.49-1.92,5.26-1.53,6.92.62ZM218.32,242.57c1.49,1.93,3.43,2.41,4.75,1.39,1.33-1.02,1.36-3.02-.13-4.95-1.6-2.07-3.48-2.41-4.77-1.41-1.3,1.01-1.45,2.9.15,4.98Z"/>
                <path class="cls-16" d="M231.19,226.43l5.19,5.48.91-.87.54.57-3.28,3.11-.54-.57.9-.86-3.9-4.12,2.38,6.75-.72.69-6.51-2.67,3.82,4.03.89-.85.54.57-2.5,2.37-.54-.57.93-.89-5.19-5.48-.93.89-.54-.57,2.27-2.15,6.92,2.8-2.5-7,2.23-2.11.54.57-.91.87Z"/>
                <path class="cls-16" d="M236.08,220.95l-.85.95,5.63,5.03.85-.95.58.52-3.06,3.42-.58-.52.85-.95-5.63-5.03-.85.95-.58-.52,3.06-3.42.58.52Z"/>
                <path class="cls-16" d="M239.91,215.75l-.38-.3.48-.61,1.77,1.41-.45.56c-.83-.52-1.59-.44-2.15.25-.49.62-.44,1.31.09,1.73.51.41,1.09.35,2.46-.21,1.75-.71,2.78-.68,3.75.08,1.24.99,1.33,2.47.23,3.85-.59.74-1.26,1.17-2,1.29l.49.39-.48.61-2.02-1.6.46-.57c.95.63,1.96.53,2.59-.26.53-.66.49-1.38-.08-1.83-.5-.4-1.09-.37-2.35.11-1.95.73-2.89.73-3.81,0-1.2-.96-1.3-2.46-.23-3.81.49-.62,1.01-.96,1.61-1.08Z"/>
                <path class="cls-16" d="M246.54,208.88l-.47.68-.85-.59-1.56,2.25,2.59,1.79,1.21-1.74-.7-.48.46-.67,2.21,1.53-.46.67-.78-.54-1.21,1.74,2.75,1.9,1.63-2.35-.89-.62.46-.67,1.6,1.11-3.99,5.77-.65-.45.73-1.06-6.19-4.28-.73,1.06-.65-.45,3.93-5.68,1.55,1.08Z"/>
              </g>
              <polygon class="cls-15" points="36.1 198.2 31.97 196.41 28.14 198.8 28.57 194.31 25.12 191.42 29.52 190.44 31.2 186.26 33.49 190.14 37.99 190.45 35.01 193.83 36.1 198.2"/>
              <polygon class="cls-15" points="261.53 198.2 257.4 196.41 253.57 198.8 254 194.31 250.55 191.42 254.95 190.44 256.63 186.26 258.92 190.14 263.42 190.45 260.44 193.83 261.53 198.2"/>
            </g>
            <g class="cls-20">
              <g>
                <rect class="cls-16" x="-5.2" y="60.05" width="251.85" height="167.9"/>
                <rect class="cls-21" x="-5.2" y="60.05" width="251.85" height="167.9"/>
                <path class="cls-7" d="M-5.2,227.95V75.59c31.07,16.28,56.84-8.29,90.68-8.06,22.95.15,40.33,19.8,66.79,18.97,30.39-.96,54.59-30.45,94.37-10.9v152.36H-5.2Z"/>
                <path class="cls-7" d="M-5.2,227.95V91.38c19.36-4.92,42.12,13.43,58.7,13.43,24.86,0,30.41-18.41,72.49-18.41,30.55,0,54.11,15.84,81.93,15.84,10.09,0,22.68-6.48,38.74-10.87v136.57H-5.2Z"/>
                <path class="cls-22" d="M246.65,227.95V86.49c-31.61,14.1-56.84-7.7-90.68-7.49-22.95.14-40.33,18.39-66.79,17.61-30.39-.89-54.59-28.27-94.37-10.12v141.46h251.85Z"/>
                <path class="cls-6" d="M246.65,227.95v-120.81c-19.35-5.18-42.12,11.92-58.7,11.92-24.86,0-30.41-16.28-72.49-16.28-30.55,0-54.11,14.01-81.93,14.01-10.09,0-22.82-5.19-38.74-9.65v120.81h251.85Z"/>
                <path class="cls-4" d="M246.65,227.95v-108.7c-53.38-14.19-72.07,10.03-98.69,10.03-30.09,0-55.8-19.74-84.8-19.74-23.19,0-43.51,15.68-68.36,9.71v108.69h251.85Z"/>
                <path class="cls-14" d="M246.65,227.95v-101.29c-31.36-8.95-39.65,10.91-70.75,10.91-41.81,0-43.78-24.03-75.04-24.03-28.25,0-60.23,26.99-106.06,13.12v101.29h251.85Z"/>
                <path class="cls-18" d="M246.65,227.95v-90.64c-31.07,14.96-54.3-7.2-74.1-7.2-28.69,0-50.08,12.89-83.37,12.89-46.1,0-61.31-21.64-94.37-5.69v90.64h251.85Z"/>
                <path class="cls-13" d="M246.65,227.95v-85.42c-24.93-5.68-42.69,16.18-68.91,13.09-27.85-3.29-43.49-19.27-65.83-19.27s-38.7,16.89-65.17,16.89c-13.67,0-30.33-5.67-51.93-10.71v85.42h251.85Z"/>
                <path class="cls-17" d="M246.65,227.95v-69.6c-21.34,6.26-38.9,11.85-58.91,11.85-52.17,0-92.93-22.72-139.27-22.72-20.97,0-36.9,5.42-53.66,10.86v69.6h251.85Z"/>
                <path class="cls-2" d="M246.65,227.95v-57.15c-13.98-6.16-35.57-12.44-58.08-9.99-45.77,4.98-76.57,26.65-126.01,26.75-36.58.07-52.72-9.87-67.75-16.76v57.15h251.85Z"/>
                <path class="cls-3" d="M246.65,227.95v-42.68c-34.37,7.7-49.96,13.96-93.86,17.65-56.68,4.77-82.89-36.47-157.99-17.67v42.7h251.85Z"/>
                <path class="cls-19" d="M246.65,227.95v-30.48c-26.85-7.85-55.29-14.93-98.73-4.25-24.27,5.97-43.25,20.68-76.78,22.53-23,1.27-57.91-13.35-76.33-18.29v30.48h251.85Z"/>
                <path class="cls-16" d="M-5.2,227.95v-18.04c27.28-3.79,55.29-8.84,98.73-2.51,24.27,3.53,43.25,12.24,76.78,13.34,23,.75,57.91-7.9,76.33-10.82v18.04H-5.2Z"/>
              </g>
            </g>
            <path class="cls-10" d="M144.47,39.96c-6.65,0-13.16.63-19.46,1.83.05,1.23-.16,2.43-.95,3.16v2.01c6.59-1.39,13.42-2.12,20.41-2.12,54.49,0,98.82,44.33,98.82,98.82s-44.33,98.82-98.82,98.82-98.82-44.33-98.82-98.82c0-41.93,26.25-77.84,63.18-92.17l-.58-2.04,3.12-2.07.02-2.04c-41.05,13.81-70.62,52.61-70.62,98.31,0,57.27,46.43,103.7,103.7,103.7s103.7-46.43,103.7-103.7-46.43-103.7-103.7-103.7Z"/>
            <g>
              <path class="cls-9" d="M181.7,139.01l1.68-1.49-11.11-6.36-.58,1.9-.91-.47-3.06,4.95-.88-.91.17-.62-3.6-2.31-.59-1.28-.93-1.58-.06-.37-.55-3.89-1.59-3.95-1.11-1.24-.66-1.03-2.14-1.06-.93-.13-.59-.97.4-.5-.31-.71-.81-.31-.09-.03-2.42-6.12,1.1-1.43-1.02-6.37.72-.49-.87-2,.71-2.67,10.96-.93-11.05-1.06-.4-1.47,9.79-4.21-10.71,2.38-1.36-1.68,5.68-7.14-.75.55-7.23,5.56-3.05-.85-1.72-9.2-.58,9.33-3.72.8-8.15-5.69,6.49,6.94-1.71,1.76-7.83.15.29-2.2-.59-3.33-2.59-11.07-.57-3.17.1-4.44.25-.59v-.03s.06-.15.06-.15l-.15-3.24-.43-1.58-1.3-2.55-.97-.75.17-1.78.06-.03.96-.84-.46-1.02-.1-.47,3.02-.77.8-.87.12-1.15.03-.28-.67-2.14.52-1-1.67-1.25-2.77-.59h-3.62s-.1.01-.1.01h-.01l-1.28.17-.63.09-1.52.18-2.62,1.36.68,1.1-.69,2.02-.15,1.2.41.81,1.92.87.31,1.86,1.27,2.08-.81.93v.88l.43.55-.22,1.15.59.96-.38,1.4.47,1.27.13.75,1.15,2.15v.99s-.33.51-.33.51l.17.49-.34.43.06.5.69.99.21,1.78.35.67.17,8.77.34,3.3,1.08,4.6.34,1.87.81,4.31-2.15,3.89-2.09,5.66-.19,2.11.31,2.68.99,2.76.9.66h.03l.84.25.9.41.1.81-1.12,1.49-.13.15.12,1.22.84.47h.62l.24.84,1.58,1.65-.59,2.76.06,1.21.52.5v1.34l-.91,1.36-.05.75-.07,1.06,1.65,1.59v.87l.44.55.15.29.22.4.65.56.46,2.06.78,1.55-.84,1.53-1.52,2.83-1.47,4.07-1.24,3.82-.13,1.22.18,2.39,1.09,2.02.95.41.04.03h.03l.34.12h2.29s-.18,3.05-.18,3.05l-1.65,3.46-.94,2.98-.4,1.15-.1,2.6.38,1.18.68.91.22.84.71,4.91.27,4.29.74,2.48-.13,2.15.24,2.92-.9,2.61-.47,2.77v1.5l.99,1.43-.9,1.84-.59,4.65-.04.86-.19,3.81.34,3.4.12,1.23.59,3.94-.18.69.15,1.16-.78,1.21.1,1.19-.41.65.65,2.22.44,1.25-.66,1.58-.04,1.03-2.74,4.84-1.38,1.62-.77,1.46,49.57.05-1.31-1.8.06-2.14-1.5-15.92,2.3-2.17-.4-4.19-.49-5.07-.19-1.94,1.08-.39-.53-2.06,1.37-.71v-.99l-.52-4.07,1.46-.88v-.92l.15-.54-.99-6.99.41-2.24-2.04-14.96s1.09-.59,1.53-1.39c.01-.03.02-.05.03-.08.02-.07.03-.13.03-.17,0-.03,0-.07.03-.07t.03-.05c.38-.56,2.61-.56,2.61-.56l.96-1.36,1.35-4.2.14-.94.66-4.35.31-2.83,1.09-.1,1.05-.06.56-.09,4.79-7.12,1.03-1.96-.93-1.36-.68-.93,2.11-3.73-.8-.4ZM148.33,116.5l-.4-1.19v-3.04l1.59,1.81.78,2.42h-1.96ZM134.06,100.23l-.71,2.58.41.83-1.57,2.21-1.86-1.15v-1.37s.35-1.43.35-1.43l-.62-2.11-.4-.72-.31-.59-.11-.66,3.9.1.41.56.52,1.74ZM133.13,96.09l-.38.03-4.38.41-.36-.69-.38-.19-.55-.27-.29-1.11-.18-.66,4.84.67h.06s2.02.27,2.02.27l-.41,1.55Z"/>
              <polygon class="cls-12" points="120.32 45.72 120.32 47.52 116.82 47.51 116.72 47.53 116.71 47.53 114.81 47.78 114.81 45.72 120.32 45.72"/>
              <path class="cls-12" d="M121.77,41.62c0,1.92-.48,2.92-1.82,4.1h-5.3c-.62-.89-.78-2.57-.48-3.39.5-1.43,1.9-2.25,2.44-3.53.25.84.51,1.6,1.48.83.87-.63.94-2.25.63-3.45,1.88,1.46,3.06,3.32,3.05,5.44Z"/>
              <path class="cls-11" d="M143.78,174.08l-3.99,8.57-12.46,14.14-2.9,10.67-.19.7,1.5-.7,4.71-2.21,2.6-5.38v-7.06l6.74-2.44,4.15-13.55,3.7-.75.91-5.38-4.75,3.39ZM121.95,174.21l.92,5.75.75-5.19,3.74-13.4-5.41,12.84ZM128.29,163.89l-4.01,14.45,4.01-9.38,8.43-22.43-8.43,17.37ZM145.82,141.99l-.02.06-5.09,18.46,6.42-18.46.03-.06.75-2.18,1.19-9.69-3.27,11.87ZM167.43,187.96l.41-2.24-.83-2.58-1.74-1.21-2.23-16.61,1.33-1.98-2.01-5.94,1.25-1.61-2.7-3.31.92,5.08-.92,1.24-2.14-9.39,1.09.78-2.01-8.11v-.06s-.21-.84-.21-.84l-2.62-1.77-1.75,1.77,1.44.84.12.07,1.86,1.08-3.42,8.77-6.37,5.41,8.11-5.53,1.68-7.09,7.35,47.53-17.18,11.52,2.25,2.92-.03.79-.12,2.87-5.53,2.98-9.08,4.88,3.85,1.67,4.29-4.59-4,22.25h5.22s2.46-12.72,2.46-12.72l5.84-10.45.47-1.42,1.81-5.46,1.28-3.87,3.07,1.83-.27,2.03-.7,5.28-2.44,18.37-3.08,6.42,6.16-3.04,1.26-21.81.28-4.8,1.06-.42,2.33-.94.07.94.38,5.12.47,6.31,2.3-2.17-.4-4.19-.49-5.07-.19-1.94,1.08-.39-.53-2.06,1.37-.71v-.99l-.52-4.07,1.46-.88v-.92l.15-.54-.99-6.99ZM159.99,142.07v-.07l-1.27-7.43-3.07-8.77-.64,10.85,1.41-4.23,1.85,5.55,1.12,4.03.03.07,1.48,5.41-.92-5.41ZM142.14,132.72l-1.02,1.02-6.46,6.53h-2.68s-1.53,1.7-1.53,1.7l-2.42,2.7-4.66,9.05-.47-3.2-2.3,3.2-.53,3.11,1.39,1.89.04.03h.03l2.93-.99,6.09-14.64,5.22-.74.31-.41,4.36-5.9.68-.72,3.32-3.41,1.78-5.34-4.07,6.12ZM179.67,145.04l-.62,1.08.99.75-.93.77-.94-.69.25,1.09-1.45.9-1.46-1.3-.38.78,1.78,1.92-1.66.38-.68-1.06-.06-.1-7.12,12.37-.38.62-1.89-.77-.06-7.06-.98-6.16.74-1.87,1.18-3.53-2.09,2.39-.08-2.39.71-1.09.03-.07,1.43-2.14-2.7.44-.15-4.2-1.3-4.07-.03-1.55-.55-3.89-1.59-3.95-4.86-1.74-1.52-.57.81,1.65,4.89,1.52,1.43,5.32,2.16,11.88.09,1.31v.06l.31,4.78,2.8,23.92s1.09-.59,1.53-1.39c.01-.03.02-.05.03-.08.03-.08.06-.16.06-.24t.03-.05c.21-1.03,2.61-.56,2.61-.56l.96-1.36,1.35-4.2.11-.94,1-7.17,1.09-.1,1.61-.14,4.64-7.87-1.15-1.62ZM141.12,124.27l-2.73,2.34-7.84,13.67,10.57-12.45,1.02-1.21s3.9-6.37,4.08-6.68l-5.1,4.35ZM134.15,103.99l-2.46,2.42-1.67-.35.25-3.63-3.95,9.2-3.63,2.89,4.01-4.88,2.05-4.67-3.6,5.53-1.77.5,1.92-2.8,1.91-5.22-3.17,5.4-5.01,5.66,5.72-2.58-4.44,4.26-3.17.58,1.74.65.1.81-1.12,1.49v1.37s.83.47.83.47l.86-.22v1.06s1.58,1.65,1.58,1.65l1.1-5.01,3.3-5.16-1.8,3.89-2.62,9.26,2.27-1.36,1.36-5.75.47-1.9,1.11,1.27-.33-3.36,1.21-.78.53.25,1.06-.19.13-2.11-.84.39-.35-1.3,1.38-5.43-.72,5.71,2.17-2.14-.94,4.6-1.25,4.02,2.47-5.04.52-3.57.94-1.65v4.41s.34-6.19.34-6.19l1.08,1.03.81-2.18-.37-1.33ZM134.98,113.75l-1.43,6.56,2.24-5.78v-3.86s-.8,3.08-.8,3.08ZM125.81,126.58l-5.19,5.19,1.71,1.11v2.99s.86-1.74.86-1.74l1.42,5.23,2.38-11.39,3.58-6.96v-4.2l-4.76,9.76ZM120.11,104.26l-3.76,3.68,2.73-2.17-1.06,3.39,1.84-1.05-.28-1.5.53-2.35ZM119.77,101.65l-1.53,2.21,1.87-1.03-.34-1.18ZM142.82,96.22l-.62-.99-.69.99-6.18,2.7.53.72-.44.47-.21.21-.23,2.46.66,3.7,1.01.69v2.24s.8.25.8.25l.26-1.67-.56-2.05-1.03.28-.38-.26.44-.59.78-.12v-2.27s.22-.25.22-.25l.74-.9,1.06-.15.47-.34,1.49.34.63-.56-.19-1.34-1.84-.29-1.45.65-.16-.49,4.01-2.15.87-1.27ZM119.36,51.84l-4.88.25,4.77.62,3.85,1.16-2.92,1.39-4.1.22,4.28.06.29,1.28-.47.62-1.4-.22-2.83,1.83.87-.22,1.4.72.4-.87.5-.22,1.29,1.25.23-1.81.96-.84-.56-1.49,3.02-.77.8-.87.12-1.15-5.64-.94ZM114.48,57.03l.27-1.25-1.4-.62.31,1.87.75,2.26.68-.25v-.99s-.61-1.03-.61-1.03ZM152.13,109.1l-1.02-6.37.72-.49-.87-2,.71-2.67,10.96-.93-11.05-.42v-.65l-.4-1.47,9.79-4.21-10.52,2.88-1.55-2.18,5.68-7.14.16-.18-.91.74-6.86,5.85,2.35,2.14-4.68-1.9-1.27-1.24-1.54-9.33-.58,9.33,1.85.96-6.75,1.62,1.18-1.34-8.14-6.13,6.49,6.94-.87,1.64-1.15,2.39.19-1.7-7.71-.42v-1.87l-.83-5.07-1.92-8.18-.71-4.65.1-4.44.25-.59v-.03s-.34-3.3-.34-3.3l-1.55-3.39-.68.31,1.42,3.67-1.42,1.56v-2.08l-1.59-1.22-.53.68-3.45-.46,3.14.99,1.61,1.71-.53.38-1.76-1.56-2.45.47.36,2.3.72-1.53,1.36-.31,1.93,1.3.15,2.46.59.56v.68l.43.91-.44,1.18-.84-.47-.13.47.43,1.58h-2.04s1.52.69,1.52.69l-.59.93h-1.12l.78,3.02.71,1.31,1.71,3.98,1.42.56,1.68-1.46.71,1.46.32,8.89.1,2.7-3.38-.75,3.38,1.68.47,4.23,1.56-3.39,1.18-2.05-.44-1.03-.55-.27-.29-1.11-.18-.66,4.84.67h.06s2.02.27,2.02.27l-.41,1.55-.34.06-4.31.61.75,1.06,3.9.1.41.56.52,1.74.34-.5.26-.34v-.03s.15-.22.15-.22l.19-.28-.06-.25.02-.31-.15-.22-.08-.47v-.06s.49.43.49.43l.06-.5-.38-.73-.46-.25-.15-.66.15-.18-.03.31.71.53.44.46.22-.41-.4-.65-.46-.59h-.22l.3-.47.31.22.96,1.02-.62-1.64-.25-.18.27-.41.41.47.45,1.53.57-.5-.23-.93-.12-.47-.64-.71.52-.75.22-.05-.26.18v.34s.78.94.78.94l.22,1.22.78-.43-.35-1.58-.43-.94.5-.19.52,1.03.29,1.46.93-.15-.43-2.67-.13-.1.65-.25v.31l.44,2.55,1.09-.1-.28-2.86-.28-.25.99-.37.46.15h-.3l-.38.5.25,2.71,1.18-.07.07-2.58-.18-.31.77.28v2.64s1.02-.01,1.02-.01l.28-2.16.46.18-.15,1.31v.71l1.08.28-.13-.84.19-.56.5.66-.1.99.57.44.09-.57.06-.11.44.59-.07.28.44.62.13-.28.37.53v.06s1,1.31,1,1.31l.18.42-3.91-.59-3.17-.94,1.61,1.34,2.52,1.75h-2.08l-1.61.49-.43,3.07.49.78-.5.62h-1.62v.5h.78l.13.44h-.47s-.78.96-.78.96l1.43-.25.63.59-.8.53,1.8.31.75.62.02-1.18-.1-.93-.34-.38-.34-1.5v-1.13s-.34-.49-.34-.49v-1.19s1.58.91,1.58.91l1.8.47-.92,3.39-1.04,2.36-1.08.62h-2.02l-.96-.19-2.42-.43-.78-.56.38,1.18,2.83,2.99,5.27,5.58,3.88.62.4-.62,1.36-.56,1.49.17v-.41l-2.52-6.15,1.1-1.43ZM148.3,116.5l-.37-1.19v-3.04l1.59,1.81.78,2.42h-1.99ZM128.07,103.33l1.03-.47-.44,1.4,1-2.83v-2.36l-1.59,4.26Z"/>
            </g>
          </g>
        </g>
        <path class="cls-11" d="M342.08,36.1h24.27v4.63h-7.78v28.04c0,13.33,6.49,19.25,14.74,19.25s14.74-4.82,14.74-19.9v-27.4h-7.6v-4.63h22.89v4.63h-7.5v28.78c0,14.91-8.15,23.13-22.89,23.13-13.81,0-23.36-6.37-23.36-24.89v-27.02h-7.5v-4.63Z"/>
        <path class="cls-11" d="M411.82,86.64c0,3.23-2.61,5.82-5.84,5.82s-5.84-2.59-5.84-5.82,2.61-5.84,5.84-5.84,5.84,2.61,5.84,5.84"/>
        <path class="cls-11" d="M423.37,74.88h4.64v7.05c3.71,4.43,7.33,6.37,11.22,6.37,5.19,0,9.26-3.89,9.26-8.87,0-9.37-12.87-11.21-20.38-18.7-3.62-3.62-5.01-7.41-5.01-11.21,0-7.32,6.12-14.34,15.75-14.34,4,0,7.6.73,10.76,2.78v-2.96h4.63v15.08h-4.63v-6.02c-2.32-2.97-5.85-4.73-9.64-4.73-6.2,0-8.89,3.71-8.89,7.98,0,8.69,12.69,9.98,20.67,17.96,3.52,3.51,4.72,6.66,4.72,11.19,0,9.44-6.67,16.02-16.68,16.02-4.27,0-7.6-1.31-11.77-3.89v4.06h-4.64v-17.76Z"/>
        <path class="cls-11" d="M474.28,86.64c0,3.23-2.62,5.82-5.85,5.82s-5.83-2.59-5.83-5.82,2.6-5.84,5.83-5.84,5.85,2.61,5.85,5.84"/>
        <path class="cls-11" d="M348.17,139.56c4.63-4.08,10.11-6.37,14.74-6.37,7.51,0,12.15,5.17,12.15,13.59v15.83c0,3.88,1.65,6.3,3.99,6.3.73,0,3.15-.36,3.99-.56v2.59c-2.88,2.04-5.75,3.16-8.45,3.16-2.96,0-4.99-1.67-7.03-5.75-4.64,3.43-7.98,5.75-11.31,5.75-5.1,0-8.99-4.55-8.99-10.2s3.14-8.98,10.74-10.84l8.54-2.13v-5.18c0-4.53-1.4-7.68-6.5-7.68-2.96,0-6.3,1.3-10.93,4.17l-.93-2.69ZM355.22,162.8c0,2.95,2.13,5.18,5,5.18,1.85,0,3.89-.92,6.31-2.87v-10.37c-8.08,1.94-11.31,4.27-11.31,8.05"/>
        <path class="cls-11" d="M385.53,169.19h7.05v-31.11h-7.05v-3.79h15.57v4.35c4.55-3.33,9.17-5.46,14.36-5.46,6.13,0,10.66,3.87,10.66,11.29v24.72h6.85v3.79h-21.49v-3.79h6.1v-22.78c0-5.28-2.87-8.05-6.85-8.05-2.88,0-6.4,1.48-9.64,4.08v26.76h6.39v3.79h-21.97v-3.79Z"/>
        <path class="cls-11" d="M463.78,169.19h-3.69c-9.18,0-15.76-4.35-15.76-16.19,0-9.45,3.88-14.91,10.38-14.91,2.97,0,6.2,1.47,9.07,4.35v26.76ZM456.93,115.87h6.85v22.21c-3.79-3.23-7.87-4.9-11.76-4.9-9.36,0-17.24,8.97-17.24,19.81,0,12.22,8.71,19.98,22.15,19.98h22.24v-3.79h-6.86v-57.12h-15.38v3.8Z"/>
        <polygon class="cls-11" points="509.34 168.35 517.03 168.35 517.03 122.16 509.34 122.16 509.34 117.53 533.71 117.53 533.71 122.16 526.02 122.16 526.02 168.35 533.71 168.35 533.71 172.98 509.34 172.98 509.34 168.35"/>
        <path class="cls-11" d="M539.26,169.19h6.86v-31.12h-6.86v-3.79h15.4v4.45c5.93-3.15,10.38-5.55,15.29-5.55,4.45,0,8.06,2.4,9.55,6.47,3.98-3.06,10.38-6.47,15.57-6.47,7.23,0,11.12,4.62,11.12,12.95v23.06h6.76v3.79h-21.79v-3.79h6.49v-20.56c0-6.66-2.32-9.81-7.12-9.81-2.88,0-6.68,1.76-10.12,4.16v26.21h6.77v3.79h-21.77v-3.79h6.48v-19.36c0-6.57-.92-11.01-6.95-11.01-3.51,0-5.94,1.49-10.28,4.16v26.21h6.58v3.79h-21.98v-3.79Z"/>
        <path class="cls-11" d="M616.48,169.19h6.86v-31.12h-6.86v-3.79h15.38v4.45c5.94-3.15,10.38-5.55,15.31-5.55,4.44,0,8.04,2.4,9.54,6.47,3.98-3.06,10.38-6.47,15.58-6.47,7.22,0,11.11,4.62,11.11,12.95v23.06h6.77v3.79h-21.77v-3.79h6.48v-20.56c0-6.66-2.31-9.81-7.13-9.81-2.87,0-6.68,1.76-10.09,4.16v26.21h6.76v3.79h-21.78v-3.79h6.48v-19.36c0-6.57-.92-11.01-6.96-11.01-3.51,0-5.93,1.49-10.28,4.16v26.21h6.58v3.79h-21.96v-3.79Z"/>
        <path class="cls-11" d="M693.37,169.19h6.76v-31.12h-6.76v-3.79h15.3v34.91h6.57v3.8h-21.87v-3.8ZM708.85,123.49c0,2.87-2.41,5.27-5.29,5.27s-5.28-2.4-5.28-5.27,2.41-5.26,5.28-5.26,5.29,2.4,5.29,5.26"/>
        <path class="cls-11" d="M727.32,147.88c0-7.02,3.15-11.29,8.42-11.29s8.16,4.35,8.16,11.76-3.15,11.29-8.16,11.29c-5.27,0-8.42-4.45-8.42-11.76M755.77,134.28h-12.05c-1.21,0-2.32-.27-3.62-.56-1.38-.27-2.97-.55-5.28-.55-9.64,0-16.33,6.01-16.33,14.81,0,7.41,4.36,12.4,12.81,14.62v.19l-1.4.27c-4.54,1.22-6.57,3.34-6.57,6.02,0,2.32,1.67,4.54,4.72,6.48-7.78,2.68-11.4,5.93-11.4,9.71,0,4.83,6.95,10.76,19.08,10.76s19.46-4.99,19.46-12.78c0-2.41-.55-4.17-2.58-6.2-5.95-5.92-21.23-5.84-21.23-10.46,0-.56.17-.74.64-1.21,2.79-2.78,9.65-.65,16.59-7.59,2.69-2.69,4.08-6.57,4.08-10.18s-1.3-6.67-3.89-9.54h6.95v-3.79ZM731.31,176.96c12.5,3.52,16.67,5.38,16.67,8.8,0,1.57-1.2,3.15-3.05,3.8-2.04.75-5.55,1.31-8.81,1.31-6.66,0-11.11-2.61-11.11-6.4,0-2.68,1.66-4.62,6.3-7.5"/>
        <path class="cls-11" d="M759.41,169.19h6.96v-31.12h-6.96v-3.79h15.5v6.48h.18c4.63-5.74,6.94-7.58,9.44-7.58,2.32,0,4.35,1.1,6.57,3.7-.74,3.88-1.93,7.03-3.52,9.53-2.22-4.08-3.52-5.47-6.11-5.47s-4.46,1.67-6.57,4.63v23.62h6.95v3.79h-22.44v-3.79Z"/>
        <path class="cls-11" d="M813.32,154.74v10.38c-2.4,1.93-4.45,2.87-6.3,2.87-2.87,0-5-2.23-5-5.2,0-3.8,3.24-6.11,11.3-8.05M795.9,142.24c4.64-2.87,7.97-4.17,10.94-4.17,5.1,0,6.48,3.15,6.48,7.68v5.18l-8.52,2.14c-7.6,1.84-10.76,5.09-10.76,10.83s3.9,10.18,9,10.18c3.34,0,6.68-2.31,11.31-5.74,2.04,4.07,4.08,5.74,7.05,5.74,2.67,0,5.54-1.11,8.42-3.15v-2.59c-.83.18-3.25.55-3.99.55-2.31,0-3.99-2.4-3.99-6.29v-15.84c0-8.41-4.62-13.6-12.13-13.6-4.63,0-10.1,2.32-14.73,6.38l.92,2.68Z"/>
        <path class="cls-11" d="M828.95,138.07l13.89-14.35v10.56h10.85v3.79h-10.85v22.41c0,6.11,1.67,8.98,5.19,8.98,3.7,0,5.56-2.96,6.5-2.96.55,0,.93.73.93,1.2,0,1.02-3.44,6.39-10.2,6.39s-10.94-4.54-10.94-12.87v-23.15h-5.37Z"/>
        <path class="cls-11" d="M859.06,169.19h6.76v-31.12h-6.76v-3.79h15.28v34.91h6.59v3.8h-21.88v-3.8ZM874.55,123.49c0,2.87-2.42,5.27-5.29,5.27s-5.28-2.4-5.28-5.27,2.41-5.26,5.28-5.26,5.29,2.4,5.29,5.26"/>
        <path class="cls-11" d="M893.01,153.62c0-10.46,4.45-16.65,11.77-16.65s11.77,6.19,11.77,16.65-4.35,16.68-11.77,16.68-11.77-6.2-11.77-16.68M883.47,153.62c0,11.49,9.35,20.47,21.31,20.47s21.32-8.98,21.32-20.47-9.37-20.45-21.32-20.45-21.31,8.97-21.31,20.45"/>
        <path class="cls-11" d="M929.13,169.19h7.04v-31.12h-7.04v-3.79h15.57v4.36c4.53-3.34,9.17-5.46,14.35-5.46,6.12,0,10.66,3.89,10.66,11.27v24.74h6.86v3.79h-21.49v-3.79h6.1v-22.78c0-5.27-2.87-8.05-6.86-8.05-2.86,0-6.39,1.49-9.62,4.07v26.76h6.39v3.79h-21.96v-3.79Z"/>
        <path class="cls-11" d="M544.78,85.99c-5.38,4.44-12.23,6.67-20.11,6.67-16.58,0-28.17-12.59-28.17-28.24,0-16.94,12.24-29.44,29.01-29.44,4.64,0,9.08.84,13.35,2.41l.63-3.15h3.44v16.19h-4.08c-1.59-6.84-6.58-10.82-13.72-10.82-10.66,0-17.8,9.35-17.8,23.5,0,14.92,8.06,24.9,20.11,24.9,5.39,0,10.94-2.03,17.34-6.75v4.72Z"/>
        <path class="cls-11" d="M549.6,87.76h6.77v-31.11h-6.77v-3.79h15.29v34.9h6.57v3.79h-21.87v-3.79ZM565.07,42.06c0,2.87-2.4,5.27-5.27,5.27s-5.29-2.41-5.29-5.27,2.41-5.28,5.29-5.28,5.27,2.41,5.27,5.28"/>
        <path class="cls-11" d="M575.55,56.65l13.9-14.34v10.55h10.85v3.79h-10.85v22.4c0,6.11,1.67,8.98,5.18,8.98,3.71,0,5.56-2.95,6.49-2.95.56,0,.93.74.93,1.21,0,1.02-3.43,6.38-10.21,6.38s-10.92-4.53-10.92-12.88v-23.13h-5.37Z"/>
        <path class="cls-11" d="M605.68,87.76h6.76v-31.11h-6.76v-3.79h15.28v34.9h6.58v3.79h-21.86v-3.79ZM621.14,42.06c0,2.87-2.41,5.27-5.27,5.27s-5.29-2.41-5.29-5.27,2.4-5.28,5.29-5.28,5.27,2.41,5.27,5.28"/>
        <polygon class="cls-11" points="631.99 52.85 664.15 52.85 664.15 54.34 642.18 87.76 661.92 87.76 661.92 81.08 665.26 81.08 665.26 91.54 630.61 91.54 630.61 90.06 652.46 56.65 635.33 56.65 635.33 61.92 631.99 61.92 631.99 52.85"/>
        <path class="cls-11" d="M678.88,65.34c.56-6.57,2.68-9.8,7.78-9.8s7.98,3.51,8.71,9.8h-16.49ZM704.46,69.13c-1.49-11.2-7.6-17.39-17.23-17.39-10.66,0-17.61,7.58-17.61,19.34,0,10.84,7.13,21.57,20.29,21.57,5.28,0,8.25-1.02,14.55-4.9l.64-4.17c-4.63,2.95-8.9,4.43-12.88,4.43-8.25,0-13.34-7.77-13.34-18.88h25.58Z"/>
        <path class="cls-11" d="M708.73,87.75h7.04v-31.11h-7.04v-3.79h15.57v4.34c4.53-3.32,9.18-5.45,14.36-5.45,6.11,0,10.66,3.88,10.66,11.29v24.72h6.86v3.79h-21.5v-3.79h6.11v-22.77c0-5.28-2.87-8.06-6.86-8.06-2.87,0-6.39,1.47-9.63,4.08v26.76h6.39v3.79h-21.96v-3.79Z"/>
        <path class="cls-11" d="M760.62,79.6h2.05c1.29,5.73,5.65,9.26,10.19,9.26,4.09,0,6.86-2.05,6.86-5.09,0-6.03-9.07-6.03-15.57-12.5-2.5-2.5-3.7-5.37-3.7-8.16,0-6.28,5.74-11.37,12.78-11.37,2.69,0,4.65.55,7.7,2.22v-2.13h2.87v10.28h-2.23c-1.1-4.17-4.08-6.57-7.97-6.57-3.33,0-5.94,2.22-5.94,5.09,0,5.47,10.01,7.04,16.04,13.06,2.22,2.22,3.24,4.8,3.24,7.59,0,6.75-5.38,11.39-13.15,11.39-3.7,0-5.84-.65-9.92-2.87l-.56,2.68h-2.68v-12.88Z"/>
        <path class="cls-11" d="M790.01,87.75h7.03v-53.32h-7.03v-3.8h15.56v26.56c3.89-3.14,9.08-5.45,14.26-5.45,5.66,0,10.85,3.69,10.85,11.57v24.44h6.67v3.79h-21.68v-3.79h6.5v-22.69c0-5.09-2.97-8.14-7.05-8.14-2.69,0-5.75,1.3-9.55,3.99v26.84h6.29v3.79h-21.85v-3.79Z"/>
        <path class="cls-11" d="M841.34,87.76h6.77v-31.11h-6.77v-3.79h15.3v34.9h6.57v3.79h-21.87v-3.79ZM856.82,42.06c0,2.87-2.41,5.27-5.28,5.27s-5.28-2.41-5.28-5.27,2.4-5.28,5.28-5.28,5.28,2.41,5.28,5.28"/>
        <path class="cls-11" d="M882.77,61c3.25-3.81,5.38-5.11,8.62-5.11,6.58,0,10.75,6.85,10.75,17.87,0,8.51-3.6,15.09-10.1,15.09-3.62,0-7.04-2.13-9.27-5.55v-22.31ZM867.39,114.13h22.14v-3.8h-6.76v-20.92c2.78,2.14,6.31,3.25,10.11,3.25,14.36,0,18.81-11.77,18.81-21.11,0-14.26-9.63-19.8-17.42-19.8-2.23,0-4.17.37-6.03,1.11-1.85.73-3.61,2.03-5.47,3.79v-3.79h-15.38v3.79h6.86v53.68h-6.86v3.8Z"/>
        <path class="cls-11" d="M347.25,237.37h4.63v7.03c3.7,4.44,7.32,6.39,11.21,6.39,5.18,0,9.27-3.89,9.27-8.89,0-9.34-12.88-11.21-20.39-18.7-3.62-3.61-5-7.41-5-11.2,0-7.31,6.11-14.34,15.74-14.34,3.99,0,7.6.74,10.74,2.77v-2.95h4.65v15.08h-4.65v-6.01c-2.31-2.97-5.83-4.72-9.62-4.72-6.21,0-8.9,3.69-8.9,7.95,0,8.71,12.69,10.01,20.67,17.97,3.51,3.52,4.72,6.66,4.72,11.2,0,9.44-6.68,16.01-16.68,16.01-4.26,0-7.59-1.29-11.77-3.89v4.08h-4.63v-17.78Z"/>
        <path class="cls-11" d="M395.22,227.83c.56-6.56,2.68-9.8,7.78-9.8s7.97,3.5,8.71,9.8h-16.5ZM420.79,231.64c-1.47-11.21-7.59-17.4-17.23-17.4-10.65,0-17.6,7.58-17.6,19.35,0,10.82,7.13,21.57,20.3,21.57,5.28,0,8.25-1.03,14.54-4.91l.66-4.18c-4.65,2.97-8.9,4.44-12.88,4.44-8.25,0-13.35-7.78-13.35-18.87h25.57Z"/>
        <path class="cls-11" d="M425.15,250.25h6.96v-31.11h-6.96v-3.79h15.48v6.48h.19c4.63-5.74,6.95-7.58,9.45-7.58,2.32,0,4.36,1.11,6.57,3.7-.73,3.89-1.93,7.02-3.52,9.54-2.23-4.08-3.53-5.48-6.12-5.48s-4.45,1.66-6.57,4.63v23.62h6.95v3.79h-22.43v-3.79Z"/>
        <polygon class="cls-11" points="459.67 215.35 479.04 215.35 479.04 219.14 473.94 219.14 483.2 240.99 491.09 219.14 485.43 219.14 485.43 215.35 500.26 215.35 500.26 219.14 494.98 219.14 481.91 254.87 480.14 254.87 464.76 219.14 459.67 219.14 459.67 215.35"/>
        <polygon class="cls-11" points="504.06 250.25 510.82 250.25 510.82 219.14 504.06 219.14 504.06 215.35 519.34 215.35 519.34 250.25 525.93 250.25 525.93 254.04 504.06 254.04 504.06 250.25"/>
        <path class="cls-11" d="M561.76,226.46h-2.69c-1.01-5.65-5.08-8.42-9.25-8.42-6.2,0-10.38,4.52-10.38,14.43,0,11.38,4.35,17.5,12.42,17.5,6.3,0,10.01-4.27,10.92-4.27.76,0,1.31,1.66,1.31,2.31,0,1.57-6.4,7.14-15.11,7.14-10.85,0-19.1-9.26-19.1-21.39,0-11.38,7.7-19.53,18.53-19.53,3.26,0,5.67.55,9.93,2.41l.73-2.31h2.69v12.13Z"/>
        <path class="cls-11" d="M577.89,227.83c.57-6.56,2.69-9.8,7.79-9.8s7.96,3.5,8.71,9.8h-16.5ZM603.48,231.64c-1.49-11.21-7.61-17.4-17.24-17.4-10.66,0-17.61,7.58-17.61,19.35,0,10.82,7.15,21.57,20.29,21.57,5.29,0,8.24-1.03,14.56-4.91l.64-4.18c-4.64,2.97-8.9,4.44-12.89,4.44-8.24,0-13.35-7.78-13.35-18.87h25.59Z"/>
        <path class="cls-11" d="M609.41,242.11h2.03c1.29,5.73,5.65,9.25,10.21,9.25,4.07,0,6.86-2.05,6.86-5.1,0-6.02-9.1-6.02-15.57-12.49-2.51-2.5-3.72-5.37-3.72-8.15,0-6.29,5.75-11.38,12.81-11.38,2.67,0,4.63.55,7.68,2.22v-2.13h2.88v10.28h-2.24c-1.11-4.17-4.08-6.56-7.97-6.56-3.34,0-5.93,2.21-5.93,5.08,0,5.47,10.01,7.04,16.04,13.05,2.22,2.22,3.24,4.82,3.24,7.6,0,6.75-5.38,11.39-13.17,11.39-3.7,0-5.83-.66-9.9-2.88l-.56,2.68h-2.68v-12.85Z"/>
        <path class="cls-11" d="M519.54,204.56c0,2.87-2.41,5.27-5.29,5.27s-5.28-2.4-5.28-5.27,2.4-5.26,5.28-5.26,5.29,2.4,5.29,5.26"/>
      </g>
    </g>
  </g>
</svg>